<svg id="Layer_1" data-name="Layer 1" xmlns="http://www.w3.org/2000/svg" xmlns:xlink="http://www.w3.org/1999/xlink" viewBox="0 0 470.9 91.71"><defs><style>.cls-1{fill:url(#New_Gradient_Swatch_1);}.cls-2{fill:url(#New_Gradient_Swatch_1-2);}.cls-3{fill:url(#New_Gradient_Swatch_1-3);}.cls-4{fill:url(#New_Gradient_Swatch_1-4);}.cls-5{fill:url(#New_Gradient_Swatch_1-5);}.cls-6{fill:url(#New_Gradient_Swatch_1-6);}.cls-7{fill:url(#New_Gradient_Swatch_1-7);}.cls-8{fill:url(#New_Gradient_Swatch_1-8);}.cls-9{fill:url(#New_Gradient_Swatch_1-9);}.cls-10{stroke-linecap:round;stroke-linejoin:round;stroke-width:3px;fill:url(#Orange_Yellow);stroke:url(#New_Gradient_Swatch_1-10);}</style><linearGradient id="New_Gradient_Swatch_1" x1="74.86" y1="145.24" x2="694.86" y2="78.24" gradientUnits="userSpaceOnUse"><stop offset="0" stop-color="#e6edac"/><stop offset="0.07" stop-color="#d1e7af"/><stop offset="0.21" stop-color="#a7dcb6"/><stop offset="0.36" stop-color="#85d3bb"/><stop offset="0.52" stop-color="#6acbc0"/><stop offset="0.67" stop-color="#57c6c3"/><stop offset="0.83" stop-color="#4cc3c4"/><stop offset="1" stop-color="#48c2c5"/></linearGradient><linearGradient id="New_Gradient_Swatch_1-2" x1="75.61" y1="152.13" x2="695.61" y2="85.13" xlink:href="#New_Gradient_Swatch_1"/><linearGradient id="New_Gradient_Swatch_1-3" x1="76.52" y1="160.58" x2="696.52" y2="93.58" xlink:href="#New_Gradient_Swatch_1"/><linearGradient id="New_Gradient_Swatch_1-4" x1="76.29" y1="158.49" x2="696.29" y2="91.49" xlink:href="#New_Gradient_Swatch_1"/><linearGradient id="New_Gradient_Swatch_1-5" x1="78.36" y1="177.64" x2="698.36" y2="110.64" xlink:href="#New_Gradient_Swatch_1"/><linearGradient id="New_Gradient_Swatch_1-6" x1="78.77" y1="181.41" x2="698.77" y2="114.41" xlink:href="#New_Gradient_Swatch_1"/><linearGradient id="New_Gradient_Swatch_1-7" x1="79.38" y1="187.05" x2="699.38" y2="120.05" xlink:href="#New_Gradient_Swatch_1"/><linearGradient id="New_Gradient_Swatch_1-8" x1="79.83" y1="191.23" x2="699.83" y2="124.23" xlink:href="#New_Gradient_Swatch_1"/><linearGradient id="New_Gradient_Swatch_1-9" x1="79.88" y1="191.69" x2="699.88" y2="124.69" xlink:href="#New_Gradient_Swatch_1"/><linearGradient id="Orange_Yellow" x1="1.5" y1="90.21" x2="378.5" y2="90.21" gradientUnits="userSpaceOnUse"><stop offset="0" stop-color="#fff33b"/><stop offset="0.04" stop-color="#fee72e"/><stop offset="0.12" stop-color="#fed51b"/><stop offset="0.2" stop-color="#fdca10"/><stop offset="0.28" stop-color="#fdc70c"/><stop offset="0.67" stop-color="#f3903f"/><stop offset="0.89" stop-color="#ed683c"/><stop offset="1" stop-color="#e93e3a"/></linearGradient><linearGradient id="New_Gradient_Swatch_1-10" x1="0" y1="90.21" x2="380" y2="90.21" xlink:href="#New_Gradient_Swatch_1"/></defs><title>hi</title><path class="cls-1" d="M77.55,176.8h-15v-66h15v26.32H98.83V110.8h15v66h-15V150.32H77.55Z" transform="translate(-62.5 -103.79)"/><path class="cls-2" d="M124.59,134.72H139V176.8h-14.4ZM132,114.56a7,7,0,1,1-6.8,7A7,7,0,0,1,132,114.56Z" transform="translate(-62.5 -103.79)"/><path class="cls-3" d="M174,120.48h14.16v15.28h8.64v10.8h-8.64v13c0,3.84,1,5.68,3.2,5.68a6.69,6.69,0,0,0,3.52-1.28l3.52,11.44A23.43,23.43,0,0,1,188,178c-11.28,0-14-8.4-14-15.68V146.56H168v-10.8H174Z" transform="translate(-62.5 -103.79)"/><path class="cls-4" d="M203.15,108h14.16v32.08h.16c3.2-3.2,7.28-5.52,11.76-5.52,7.52,0,18,3.76,18,15.2v27H233.07V153.6c0-4.08-2.8-8-7.36-8-4.24,0-8.4,3.92-8.4,8v23.2H203.15Z" transform="translate(-62.5 -103.79)"/><path class="cls-5" d="M267.79,158.24c0,6.32,5.28,8.48,8.88,8.48,4.56,0,6.56-.88,10-4.56l10.24,5.12C292.27,175,284.75,178,275.63,178c-12.4,0-22.56-9.76-22.56-21.68s10.16-21.76,22.56-21.76,22,7.36,22,21.76a14.79,14.79,0,0,1-.08,1.92Zm16-7.84c-.64-4.32-3.6-6.64-7.76-6.64-4.88,0-7.6,2.88-7.84,6.64Z" transform="translate(-62.5 -103.79)"/><path class="cls-6" d="M304.27,135.76h14.16v5.92h.16s4.48-7.12,12.56-7.12a17,17,0,0,1,9,2.56l-5.92,12a12,12,0,0,0-7.36-2.24c-7.36,0-8.4,7.28-8.4,8.32v21.6H304.27Z" transform="translate(-62.5 -103.79)"/><path class="cls-7" d="M355.87,158.24c0,6.32,5.28,8.48,8.88,8.48,4.56,0,6.56-.88,10-4.56L385,167.28C380.35,175,372.83,178,363.71,178c-12.41,0-22.57-9.76-22.57-21.68s10.16-21.76,22.57-21.76,22,7.36,22,21.76a14.79,14.79,0,0,1-.08,1.92Zm16-7.84c-.64-4.32-3.6-6.64-7.76-6.64-4.88,0-7.61,2.88-7.85,6.64Z" transform="translate(-62.5 -103.79)"/><path class="cls-8" d="M492.35,123.44a11,11,0,0,1,4.4.88,11.18,11.18,0,0,1,6,6,11,11,0,0,1,.88,4.4V167a26.41,26.41,0,0,1-1,7.08,27,27,0,0,1-2.7,6.39A26.65,26.65,0,0,1,490.4,190a27,27,0,0,1-6.39,2.7,26.09,26.09,0,0,1-7.09.95,27.23,27.23,0,0,1-4.78-.42,29.58,29.58,0,0,1-4.63-1.25,24.36,24.36,0,0,1-4.34-2.08,22.43,22.43,0,0,1-3.82-2.89c-1.78-1.64-3.5-3.28-5.18-4.94l-5.1-5a7,7,0,0,1,1.21,4,6.83,6.83,0,0,1-.54,2.71,7.15,7.15,0,0,1-1.51,2.23,7,7,0,0,1-5,2,23.25,23.25,0,0,1-9.28-1.88,23.91,23.91,0,0,1-12.71-12.71,23.22,23.22,0,0,1-1.88-9.28,6.84,6.84,0,0,1,.55-2.71,7.15,7.15,0,0,1,1.51-2.23,7,7,0,0,1,5-2,6.6,6.6,0,0,1,2.46.47,10.27,10.27,0,0,1-2.56-3.38,9.62,9.62,0,0,1-.92-4.16,10.14,10.14,0,0,1,.49-3.16,8.34,8.34,0,0,1,1.5-2.78,15.12,15.12,0,0,1-1.76-3.34,11.05,11.05,0,0,1,0-7.3,11.47,11.47,0,0,1,4.34-5.65,10.43,10.43,0,0,1,3.32-1.52,10.64,10.64,0,0,1,1.52-3.38,11.43,11.43,0,0,1,2.5-2.64,11.73,11.73,0,0,1,3.21-1.69,10.89,10.89,0,0,1,3.63-.61,11.23,11.23,0,0,1,3,.39,13.33,13.33,0,0,1,3.94-3.24,10.46,10.46,0,0,1,5-1.13,11.35,11.35,0,0,1,3.31.5,11,11,0,0,1,3,1.45l.59-.94a7.74,7.74,0,0,1-1.06-2,6.59,6.59,0,0,1-.39-2.23,7,7,0,0,1,.55-2.73,7.27,7.27,0,0,1,1.5-2.25,7,7,0,0,1,2.23-1.5,6.84,6.84,0,0,1,2.76-.55,23.16,23.16,0,0,1,8.26,1.49,24,24,0,0,1,12.3,10.35,23.54,23.54,0,0,1,2.91,7.85l.18,0Zm-49.1,59a1.34,1.34,0,0,0,1-.43,1.35,1.35,0,0,0,.43-1,1.37,1.37,0,0,0-.41-1,1.39,1.39,0,0,0-1-.41,15,15,0,0,1-6-1.21,15.43,15.43,0,0,1-4.91-3.32,16,16,0,0,1-3.3-4.92,15.2,15.2,0,0,1-1.21-6,1.4,1.4,0,0,0-1.4-1.4,1.34,1.34,0,0,0-1,.41,1.35,1.35,0,0,0-.41,1,17.64,17.64,0,0,0,1.43,7.11,18.28,18.28,0,0,0,3.9,5.8,18.76,18.76,0,0,0,5.8,3.93A17.72,17.72,0,0,0,443.25,182.42ZM498,167V134.69a5.57,5.57,0,0,0-1.62-4,6,6,0,0,0-1.78-1.21,5.36,5.36,0,0,0-2.19-.45,5.45,5.45,0,0,0-2.2.45,5.93,5.93,0,0,0-1.8,1.21,5.57,5.57,0,0,0-1.62,4V148l-7.46,7.3a12.1,12.1,0,0,0-2.76,4.11,12.61,12.61,0,0,0-.95,4.84,10.75,10.75,0,0,0,.64,3.87,15.26,15.26,0,0,0,1.43,2.89,20.78,20.78,0,0,0,1.42,2,2.3,2.3,0,0,1,.65,1.17,1.38,1.38,0,0,1-.43,1,1.35,1.35,0,0,1-1,.43,1.07,1.07,0,0,1-.55-.12,4.05,4.05,0,0,1-.43-.31,10,10,0,0,1-1.89-2.21,15.94,15.94,0,0,1-1.43-2.79,18.14,18.14,0,0,1-.9-3,15.35,15.35,0,0,1-.31-2.91A16,16,0,0,1,474,158.3a14.07,14.07,0,0,1,3.38-5l7.46-7.19-24.76-24.84a5.63,5.63,0,0,0-1.82-1.21,5.53,5.53,0,0,0-2.17-.43,5.38,5.38,0,0,0-3.43,1.15,5.88,5.88,0,0,0-2,3L469,142.15a1.39,1.39,0,0,1,.43,1,1.24,1.24,0,0,1-.43,1,1.44,1.44,0,0,1-1,.39,1.33,1.33,0,0,1-1-.39l-18.87-18.86a5.46,5.46,0,0,0-1.81-1.22,5.71,5.71,0,0,0-2.17-.43,5.29,5.29,0,0,0-3.4,1.16,5.84,5.84,0,0,0-2,3L461,150.08a1.43,1.43,0,0,1,.43,1,1.47,1.47,0,0,1-1.41,1.4,1.39,1.39,0,0,1-1-.43l-18.86-18.86a5.41,5.41,0,0,0-1.8-1.2,5.66,5.66,0,0,0-2.11-.41,5.58,5.58,0,0,0-3.46,1.14,5.41,5.41,0,0,0-2,3L453.1,158a1.41,1.41,0,0,1,.43,1,1.3,1.3,0,0,1-.45,1,1.41,1.41,0,0,1-1,.43,1.34,1.34,0,0,1-1-.43l-12.89-12.89a4,4,0,0,0-1.38-.9,4.43,4.43,0,0,0-1.62-.31,4.06,4.06,0,0,0-1.63.33,4.51,4.51,0,0,0-1.34.9,4.12,4.12,0,0,0-.92,1.33,4.15,4.15,0,0,0,.92,4.59l30.82,29.73a16,16,0,0,0,3,2.26,21.53,21.53,0,0,0,7.15,2.64,21.8,21.8,0,0,0,3.73.33,20.39,20.39,0,0,0,8.21-1.66,21.17,21.17,0,0,0,11.19-11.19A20.51,20.51,0,0,0,498,167Zm-54.73,7a1.41,1.41,0,1,0,0-2.82,6.92,6.92,0,0,1-2.75-.54,7.15,7.15,0,0,1-2.23-1.51,6.91,6.91,0,0,1-1.5-2.22,6.84,6.84,0,0,1-.55-2.76,1.35,1.35,0,0,0-.41-1,1.41,1.41,0,0,0-2.4,1,9.51,9.51,0,0,0,.78,3.83,10,10,0,0,0,2.11,3.13,10.29,10.29,0,0,0,3.12,2.11A9.54,9.54,0,0,0,443.25,174Zm25.28-64.57a1.32,1.32,0,0,0-1,.41,1.35,1.35,0,0,0-.41,1,1.39,1.39,0,0,0,.41,1,1.36,1.36,0,0,0,1,.41,15,15,0,0,1,6,1.21,15.55,15.55,0,0,1,4.9,3.3,15.33,15.33,0,0,1,3.3,4.9,15,15,0,0,1,1.22,6,1.4,1.4,0,0,0,1.4,1.4,1.4,1.4,0,0,0,1.41-1.4,17.4,17.4,0,0,0-1.45-7.07,18.5,18.5,0,0,0-9.72-9.73A17.6,17.6,0,0,0,468.53,109.42Zm0,8.39a1.36,1.36,0,0,0-1,.41,1.42,1.42,0,0,0,0,2,1.36,1.36,0,0,0,1,.41,6.86,6.86,0,0,1,2.71.54,7.15,7.15,0,0,1,2.23,1.51,7,7,0,0,1,2,5,1.47,1.47,0,0,0,1.4,1.4,1.34,1.34,0,0,0,1-.41,1.35,1.35,0,0,0,.41-1,9.38,9.38,0,0,0-.78-3.81,10.52,10.52,0,0,0-2.11-3.13,10,10,0,0,0-3.11-2.12A9.34,9.34,0,0,0,468.53,117.81Z" transform="translate(-62.5 -103.79)"/><path class="cls-9" d="M519.24,110.8H533.4L531.56,158H521Zm7.24,51.92a7,7,0,1,1-6.8,7A7,7,0,0,1,526.48,162.72Z" transform="translate(-62.5 -103.79)"/><line class="cls-10" x1="1.5" y1="90.21" x2="378.5" y2="90.21"/></svg>